<svg width="204" height="25" viewBox="0 0 204 25" fill="none" xmlns="http://www.w3.org/2000/svg">
<path d="M13 1.58154H9.72727C8.28064 1.58154 6.89325 2.16101 5.87033 3.19246C4.8474 4.22391 4.27273 5.62285 4.27273 7.08154V10.3815H1V14.7815H4.27273V23.5815H8.63636V14.7815H11.9091L13 10.3815H8.63636V7.08154C8.63636 6.7898 8.7513 6.51002 8.95588 6.30373C9.16047 6.09744 9.43795 5.98154 9.72727 5.98154H13V1.58154Z" stroke="white" stroke-linecap="round" stroke-linejoin="round"/>
<path d="M59.65 14.9715L49 22.7115L38.35 14.9715C38.2072 14.8665 38.1013 14.719 38.0474 14.5502C37.9935 14.3814 37.9944 14.1998 38.05 14.0315L39.27 10.2515L41.71 2.7415C41.7337 2.68031 41.7713 2.62551 41.82 2.5815C41.8992 2.50913 42.0027 2.46899 42.11 2.46899C42.2173 2.46899 42.3208 2.50913 42.4 2.5815C42.4514 2.63117 42.4892 2.69312 42.51 2.7615L44.95 10.2515H53.05L55.49 2.7415C55.5137 2.68031 55.5513 2.62551 55.6 2.5815C55.6792 2.50913 55.7827 2.46899 55.89 2.46899C55.9973 2.46899 56.1008 2.50913 56.18 2.5815C56.2314 2.63117 56.2692 2.69312 56.29 2.7615L58.73 10.2715L60 14.0315C60.0505 14.205 60.0437 14.3901 59.9807 14.5595C59.9176 14.7288 59.8017 14.8733 59.65 14.9715V14.9715Z" stroke="white" stroke-linecap="round" stroke-linejoin="round"/>
<path d="M108 3.58159C107.042 4.25707 105.982 4.7737 104.86 5.11159C104.258 4.4191 103.457 3.92828 102.567 3.70552C101.677 3.48275 100.739 3.53878 99.8821 3.86604C99.0247 4.1933 98.2884 4.77599 97.773 5.53531C97.2575 6.29462 96.9877 7.19392 97 8.11159V9.11159C95.2426 9.15716 93.5013 8.7674 91.931 7.97704C90.3607 7.18667 89.0103 6.02022 88 4.58159C88 4.58159 84 13.5816 93 17.5816C90.9405 18.9796 88.4872 19.6805 86 19.5816C95 24.5816 106 19.5816 106 8.08159C105.999 7.80304 105.972 7.52518 105.92 7.25159C106.941 6.24508 107.661 4.9743 108 3.58159V3.58159Z" stroke="white" stroke-linecap="round" stroke-linejoin="round"/>
<path fill-rule="evenodd" clip-rule="evenodd" d="M134.048 4.33159C134.048 3.39066 134.807 2.63159 135.738 2.63159C136.67 2.63159 137.429 3.39066 137.429 4.33159C137.429 5.27252 136.67 6.03159 135.738 6.03159C134.807 6.03159 134.048 5.27252 134.048 4.33159ZM135.738 1.63159C134.25 1.63159 133.048 2.84247 133.048 4.33159C133.048 5.82071 134.25 7.03159 135.738 7.03159C137.226 7.03159 138.429 5.82071 138.429 4.33159C138.429 2.84247 137.226 1.63159 135.738 1.63159ZM148.881 9.23159C147.271 9.23159 145.727 9.87374 144.589 11.0175C143.45 12.1613 142.81 13.7131 142.81 15.3316V22.5316H146.19V15.3316C146.19 14.6162 146.473 13.9297 146.978 13.4232C147.482 12.9166 148.167 12.6316 148.881 12.6316C149.595 12.6316 150.28 12.9166 150.784 13.4232C151.288 13.9297 151.571 14.6162 151.571 15.3316V22.5316H154.952V15.3316C154.952 13.7131 154.312 12.1613 153.173 11.0175C152.035 9.87374 150.49 9.23159 148.881 9.23159ZM148.881 8.23159C147.005 8.23159 145.206 8.98015 143.88 10.3119C142.554 11.6436 141.81 13.4493 141.81 15.3316V23.0316C141.81 23.3077 142.033 23.5316 142.31 23.5316H146.69C146.967 23.5316 147.19 23.3077 147.19 23.0316V15.3316C147.19 14.88 147.369 14.4474 147.686 14.1287C148.004 13.8102 148.433 13.6316 148.881 13.6316C149.329 13.6316 149.758 13.8102 150.076 14.1287C150.393 14.4474 150.571 14.88 150.571 15.3316V23.0316C150.571 23.3077 150.795 23.5316 151.071 23.5316H155.452C155.729 23.5316 155.952 23.3077 155.952 23.0316V15.3316C155.952 13.4493 155.208 11.6436 153.882 10.3119C152.556 8.98015 150.757 8.23159 148.881 8.23159ZM133.048 9.83159C133.048 9.55545 133.271 9.33159 133.548 9.33159H137.929C138.205 9.33159 138.429 9.55545 138.429 9.83159V23.0316C138.429 23.3077 138.205 23.5316 137.929 23.5316H133.548C133.271 23.5316 133.048 23.3077 133.048 23.0316V9.83159ZM134.048 10.3316V22.5316H137.429V10.3316H134.048Z" fill="white"/>
<g clip-path="url(#clip0_48_166)">
<path d="M185 6.08154C185 5.15329 185.369 4.26305 186.025 3.60667C186.682 2.95029 187.572 2.58154 188.5 2.58154H192V9.58154H188.5C187.572 9.58154 186.682 9.21279 186.025 8.55642C185.369 7.90004 185 7.0098 185 6.08154Z" stroke="white" stroke-linecap="round" stroke-linejoin="round"/>
<path d="M192 2.58154H195.5C195.96 2.58154 196.415 2.67207 196.839 2.84796C197.264 3.02386 197.65 3.28166 197.975 3.60667C198.3 3.93167 198.558 4.31751 198.734 4.74215C198.909 5.16679 199 5.62192 199 6.08154C199 6.54117 198.909 6.9963 198.734 7.42094C198.558 7.84557 198.3 8.23141 197.975 8.55642C197.65 8.88142 197.264 9.13923 196.839 9.31512C196.415 9.49101 195.96 9.58154 195.5 9.58154H192V2.58154Z" stroke="white" stroke-linecap="round" stroke-linejoin="round"/>
<path d="M192 13.0815C192 12.6219 192.091 12.1668 192.266 11.7422C192.442 11.3175 192.7 10.9317 193.025 10.6067C193.35 10.2817 193.736 10.0239 194.161 9.84796C194.585 9.67207 195.04 9.58154 195.5 9.58154C195.96 9.58154 196.415 9.67207 196.839 9.84796C197.264 10.0239 197.65 10.2817 197.975 10.6067C198.3 10.9317 198.558 11.3175 198.734 11.7422C198.909 12.1668 199 12.6219 199 13.0815C199 13.5412 198.909 13.9963 198.734 14.4209C198.558 14.8456 198.3 15.2314 197.975 15.5564C197.65 15.8814 197.264 16.1392 196.839 16.3151C196.415 16.491 195.96 16.5815 195.5 16.5815C195.04 16.5815 194.585 16.491 194.161 16.3151C193.736 16.1392 193.35 15.8814 193.025 15.5564C192.7 15.2314 192.442 14.8456 192.266 14.4209C192.091 13.9963 192 13.5412 192 13.0815V13.0815Z" stroke="white" stroke-linecap="round" stroke-linejoin="round"/>
<path d="M185 20.0815C185 19.1533 185.369 18.263 186.025 17.6067C186.682 16.9503 187.572 16.5815 188.5 16.5815H192V20.0815C192 21.0098 191.631 21.9 190.975 22.5564C190.318 23.2128 189.428 23.5815 188.5 23.5815C187.572 23.5815 186.682 23.2128 186.025 22.5564C185.369 21.9 185 21.0098 185 20.0815Z" stroke="white" stroke-linecap="round" stroke-linejoin="round"/>
<path d="M185 13.0815C185 12.1533 185.369 11.263 186.025 10.6067C186.682 9.95029 187.572 9.58154 188.5 9.58154H192V16.5815H188.5C187.572 16.5815 186.682 16.2128 186.025 15.5564C185.369 14.9 185 14.0098 185 13.0815Z" stroke="white" stroke-linecap="round" stroke-linejoin="round"/>
</g>
<defs>
<clipPath id="clip0_48_166">
<rect width="24" height="24" fill="white" transform="translate(180 0.581543)"/>
</clipPath>
</defs>
</svg>
